<mxfile host="app.diagrams.net" modified="2023-05-25T01:53:32.793Z" agent="Mozilla/5.0 (Windows NT 10.0; Win64; x64) AppleWebKit/537.36 (KHTML, like Gecko) Chrome/113.0.0.0 Safari/537.36" version="21.3.2" etag="PLgu1Ju6uVWl3c_3b011" type="github">
  <diagram name="第 1 页" id="AlfoBzNhZhr_rMrtCj12">
    <mxGraphModel>
      <root>
        <mxCell id="0" />
        <mxCell id="1" parent="0" />
      </root>
    </mxGraphModel>
  </diagram>
</mxfile>
